<?xml version="1.0" standalone="no"?><!DOCTYPE svg PUBLIC "-//W3C//DTD SVG 1.1//EN" "http://www.w3.org/Graphics/SVG/1.1/DTD/svg11.dtd"><svg t="1666367727508" class="icon" viewBox="0 0 1024 1024" version="1.1" xmlns="http://www.w3.org/2000/svg" p-id="1558" width="128" height="128" xmlns:xlink="http://www.w3.org/1999/xlink"><path d="M426.666667 85.333333v85.333334h170.666666V85.333333h85.333334v85.333334h42.666666a128 128 0 0 1 128 128v42.666666h85.333334v85.333334h-85.333334v170.666666h85.333334v85.333334h-85.333334v42.666666a128 128 0 0 1-128 128h-42.666666v85.333334h-85.333334v-85.333334h-170.666666v85.333334h-85.333334v-85.333334h-42.666666a128 128 0 0 1-128-128v-42.666666H85.333333v-85.333334h85.333334v-170.666666H85.333333v-85.333334h85.333334v-42.666666a128 128 0 0 1 128-128h42.666666V85.333333h85.333334z m-128 170.666667a42.666667 42.666667 0 0 0-42.666667 42.666667v426.666666a42.666667 42.666667 0 0 0 42.666667 42.666667h426.666666a42.666667 42.666667 0 0 0 42.666667-42.666667V298.666667a42.666667 42.666667 0 0 0-42.666667-42.666667H298.666667z m42.666666 128a42.666667 42.666667 0 0 1 42.666667-42.666667h256a42.666667 42.666667 0 0 1 42.666667 42.666667v256a42.666667 42.666667 0 0 1-42.666667 42.666667H384a42.666667 42.666667 0 0 1-42.666667-42.666667V384z m85.333334 42.666667v170.666666h170.666666v-170.666666h-170.666666z" fill="#1890ff" p-id="1559"></path></svg>